<?xml version="1.0" encoding="utf-8"?>
<!-- Generator: Adobe Illustrator 23.0.3, SVG Export Plug-In . SVG Version: 6.00 Build 0)  -->
<svg version="1.1" id="Layer_1" xmlns="http://www.w3.org/2000/svg" xmlns:xlink="http://www.w3.org/1999/xlink" x="0px" y="0px"
	 viewBox="0 0 2560 6000" style="enable-background:new 0 0 2560 6000;" xml:space="preserve">
<style type="text/css">
	.st0{fill:url(#SVGID_1_);}
	.st1{fill:url(#SVGID_2_);}
	.st2{fill:url(#SVGID_3_);}
	.st3{fill:url(#SVGID_4_);}
	.st4{fill:url(#SVGID_5_);}
	.st5{fill:url(#SVGID_6_);}
	.st6{fill:url(#SVGID_7_);}
	.st7{fill:url(#SVGID_8_);}
	.st8{fill:none;stroke:#27AAE1;stroke-width:8;stroke-linecap:round;stroke-linejoin:round;}
</style>
<g>
	<g id="XMLID_1_">
		<g>
			<linearGradient id="SVGID_1_" gradientUnits="userSpaceOnUse" x1="1616.7496" y1="5229.207" x2="2245.2117" y2="6955.8921">
				<stop  offset="0" style="stop-color:#A7A9AC"/>
				<stop  offset="3.728331e-02" style="stop-color:#8F8F90"/>
				<stop  offset="0.1141" style="stop-color:#5E5C5C"/>
				<stop  offset="0.2228" style="stop-color:#1E1D1D"/>
				<stop  offset="0.2626" style="stop-color:#000000"/>
			</linearGradient>
			<polygon class="st0" points="2558.5,4584.3 2558.5,6000.5 721,6000.5 721,6000 2219.3,4426.6 			"/>
			<linearGradient id="SVGID_2_" gradientUnits="userSpaceOnUse" x1="1069.9" y1="3741.2749" x2="2558.5" y2="3741.2749">
				<stop  offset="6.516782e-03" style="stop-color:#A7A9AC"/>
				<stop  offset="0.1469" style="stop-color:#A0A2A5"/>
				<stop  offset="0.3758" style="stop-color:#8D8F92"/>
				<stop  offset="0.6646" style="stop-color:#707174"/>
				<stop  offset="1" style="stop-color:#414042"/>
			</linearGradient>
			<polygon class="st1" points="2558.5,3516.3 2558.5,4584.3 2219.3,4426.6 1069.9,3892.3 1203,3357.3 2109.6,2898.3 			"/>
			<linearGradient id="SVGID_3_" gradientUnits="userSpaceOnUse" x1="1962.16" y1="2485.5601" x2="3154.8401" y2="2485.5601">
				<stop  offset="6.516782e-03" style="stop-color:#A7A9AC"/>
				<stop  offset="0.1469" style="stop-color:#A0A2A5"/>
				<stop  offset="0.3758" style="stop-color:#8D8F92"/>
				<stop  offset="0.6646" style="stop-color:#707174"/>
				<stop  offset="1" style="stop-color:#414042"/>
			</linearGradient>
			<polygon class="st2" points="2558.5,1454.9 2558.5,3516.3 2109.6,2898.3 1365.8,1874.2 			"/>
			<linearGradient id="SVGID_4_" gradientUnits="userSpaceOnUse" x1="0" y1="1095.9351" x2="2558.5" y2="1095.9351">
				<stop  offset="6.516782e-03" style="stop-color:#A7A9AC"/>
				<stop  offset="0.1469" style="stop-color:#A0A2A5"/>
				<stop  offset="0.3758" style="stop-color:#8D8F92"/>
				<stop  offset="0.6646" style="stop-color:#707174"/>
				<stop  offset="1" style="stop-color:#414042"/>
			</linearGradient>
			<polygon class="st3" points="1388.4,1208.9 0,0 0,-0.5 2558.5,-0.5 2558.5,1454.9 1365.8,1874.2 460.9,2192.4 			"/>
			<linearGradient id="SVGID_5_" gradientUnits="userSpaceOnUse" x1="952.9217" y1="4821.2886" x2="-157.4733" y2="6744.5493">
				<stop  offset="0.1155" style="stop-color:#A7A9AC"/>
				<stop  offset="0.2413" style="stop-color:#5D5B5C"/>
				<stop  offset="0.3598" style="stop-color:#2E2C2C"/>
				<stop  offset="0.4459" style="stop-color:#100F0F"/>
				<stop  offset="0.4907" style="stop-color:#000000"/>
			</linearGradient>
			<polygon class="st4" points="896.3,4590.1 1069.9,3892.3 2219.3,4426.6 721,6000 721,6000.5 -1.5,6000.5 -1.5,4675.7 0,4675.7 
							"/>
			<linearGradient id="SVGID_6_" gradientUnits="userSpaceOnUse" x1="-1.5" y1="2920.2649" x2="2109.6201" y2="2920.2649">
				<stop  offset="6.516782e-03" style="stop-color:#A7A9AC"/>
				<stop  offset="0.1469" style="stop-color:#A0A2A5"/>
				<stop  offset="0.3758" style="stop-color:#8D8F92"/>
				<stop  offset="0.6646" style="stop-color:#707174"/>
				<stop  offset="1" style="stop-color:#414042"/>
			</linearGradient>
			<polygon class="st5" points="2109.6,2898.3 1203,3357.3 0,3966.3 -1.5,3966.3 -1.5,2681 0,2681 460.9,2192.4 460.9,2192.4 
				1365.8,1874.2 			"/>
			<linearGradient id="SVGID_7_" gradientUnits="userSpaceOnUse" x1="-1.5" y1="1340.25" x2="1388.45" y2="1340.25">
				<stop  offset="6.516782e-03" style="stop-color:#A7A9AC"/>
				<stop  offset="0.1469" style="stop-color:#A0A2A5"/>
				<stop  offset="0.3758" style="stop-color:#8D8F92"/>
				<stop  offset="0.6646" style="stop-color:#707174"/>
				<stop  offset="1" style="stop-color:#414042"/>
			</linearGradient>
			<polygon class="st6" points="1388.4,1208.9 460.9,2192.4 460.9,2192.4 0,2681 -1.5,2681 -1.5,-0.5 0,-0.5 0,0 			"/>
			<linearGradient id="SVGID_8_" gradientUnits="userSpaceOnUse" x1="-1.5" y1="4016.46" x2="1203.02" y2="4016.46">
				<stop  offset="6.516782e-03" style="stop-color:#A7A9AC"/>
				<stop  offset="0.1469" style="stop-color:#A0A2A5"/>
				<stop  offset="0.3758" style="stop-color:#8D8F92"/>
				<stop  offset="0.6646" style="stop-color:#707174"/>
				<stop  offset="1" style="stop-color:#414042"/>
			</linearGradient>
			<polygon class="st7" points="0,3966.3 1203,3357.3 1069.9,3892.3 896.3,4590.1 0,4675.7 -1.5,4675.7 -1.5,3966.3 			"/>
		</g>
		<g>
			<polyline class="st8" points="0,0 1388.4,1208.9 1670.3,1454.3 			"/>
			<line class="st8" x1="460.9" y1="2192.4" x2="0" y2="2681"/>
			<line class="st8" x1="1388.4" y1="1208.9" x2="460.9" y2="2192.4"/>
			<polyline class="st8" points="460.9,2192.4 460.9,2192.4 1365.8,1874.2 2558.5,1454.9 2560,1454.3 			"/>
			<polyline class="st8" points="1365.8,1874.2 2109.6,2898.3 2558.5,3516.3 2560,3518.3 			"/>
			<polyline class="st8" points="0,3966.3 1203,3357.3 2109.6,2898.3 			"/>
			<polyline class="st8" points="1203,3357.3 1069.9,3892.3 896.3,4590.1 835.2,4835.7 			"/>
			<polyline class="st8" points="2560,4585 2558.5,4584.3 2219.3,4426.6 1069.9,3892.3 			"/>
			<line class="st8" x1="896.3" y1="4590.1" x2="0" y2="4675.7"/>
			<line class="st8" x1="721" y1="6000" x2="2219.3" y2="4426.6"/>
			<polygon class="st8" points="2558.5,4584.3 2558.5,6000.5 721,6000.5 -1.5,6000.5 -1.5,4675.7 -1.5,3966.3 -1.5,2681 -1.5,-0.5 
				0,-0.5 2558.5,-0.5 2558.5,1454.9 2558.5,3516.3 			"/>
		</g>
	</g>
</g>
</svg>
