<?xml version="1.0" standalone="no"?>
<!DOCTYPE svg PUBLIC "-//W3C//DTD SVG 1.1//EN" "http://www.w3.org/Graphics/SVG/1.1/DTD/svg11.dtd" >
<svg xmlns="http://www.w3.org/2000/svg" xmlns:xlink="http://www.w3.org/1999/xlink" version="1.1">
<metadata>
Created by FontForge 20170731 at Wed Aug  2 18:01:04 2017
 By Aleksey,,,
Copyright (c) 2017 by Vladimir Nikolic. All rights reserved.
</metadata>
<defs>
<font id="RiseofKingdom" horiz-adv-x="384" >
  <font-face 
    font-family="Rise of Kingdom"
    font-weight="400"
    font-stretch="normal"
    units-per-em="1000"
    panose-1="0 0 0 0 0 0 0 0 0 0"
    ascent="750"
    descent="-250"
    x-height="608"
    cap-height="697"
    bbox="-32.5714 -130 934.931 754.308"
    underline-thickness="50"
    underline-position="-150"
    unicode-range="U+000D-201A"
  />
<missing-glyph 
 />
    <glyph glyph-name=".notdef" 
 />
    <glyph glyph-name=".null" horiz-adv-x="0" 
 />
    <glyph glyph-name="nonmarkingreturn" unicode="&#xd;" 
 />
    <glyph glyph-name="NULL" horiz-adv-x="0" 
 />
    <glyph glyph-name="NULL" horiz-adv-x="0" 
 />
    <glyph glyph-name="space" unicode=" " 
 />
    <glyph glyph-name="exclam" unicode="!" horiz-adv-x="167" 
d="M91 120q22 0 37 -15t15 -37t-15 -37t-37 -15t-37 15t-15 37t15 37t37 15zM120 667q3 -2 4.5 -6t2.5 -14.5t0.5 -29t-1.5 -49.5q-2 -32 -4 -74.5t-4.5 -87.5t-5 -87.5t-4.5 -72.5q-2 -31 -3.5 -48.5t-2.5 -26t-2.5 -11t-2.5 -3.5q-5 -3 -13 3q-2 1 -4 4.5t-4 12t-5 25
t-6 44.5t-7 66.5t-7.5 79.5t-7 80.5t-5.5 68.5t-2.5 47.5t0 29.5t3 16.5t5.5 9.5q6 8 16.5 14t21.5 9q24 8 38 0z" />
    <glyph glyph-name="quotedbl" unicode="&#x22;" horiz-adv-x="205" 
d="M92 662q0 -14 -16 -40q-8 -14 -17.5 -30t-17.5 -25q-14 -17 -16 -1q0 7 3 18t7 23q3 13 5.5 24t0.5 19t-7 13l-8 8q-6 5 -5 9q1 3 3 7t10 6t19.5 -0.5t20.5 -7.5q18 -8 18 -23zM190 662q1 -8 -3 -17t-12 -23t-18 -30t-18 -25t-11.5 -8.5t-3.5 7.5t3 18t6 23q4 13 6 24
t0 19t-6.5 13t-7.5 8q-6 5 -5 9q0 3 2.5 7t10.5 6t19.5 -0.5t20.5 -7.5q17 -7 17 -23z" />
    <glyph glyph-name="quotesingle" unicode="'" horiz-adv-x="110" 
d="M95 662q1 -8 -3 -17t-12 -23t-18 -30t-18 -25t-11.5 -8.5t-3.5 7.5t3 18t6 23q4 13 6 24t0 19t-6.5 13t-7.5 8q-6 5 -5 9q0 3 2.5 7t10.5 6t19.5 -0.5t20.5 -7.5q17 -7 17 -23z" />
    <glyph glyph-name="parenleft" unicode="(" horiz-adv-x="218" 
d="M62 142q-15 31 -25 66t-16 71.5t-7 73.5t3 72q8 69 32.5 123.5t53.5 95.5q29 40 58 65t46 36t22 9t3 -9q-3 -7 -12 -18.5t-26 -34.5t-38 -58.5t-35 -86.5t-18.5 -112t-2.5 -114t9.5 -93t19.5 -75t27 -67t29 -57q14 -24 26 -40t16 -25q5 -8 -1 -7.5t-32 20.5
q-12 10 -29 25.5t-35 36t-36 46.5t-32 57z" />
    <glyph glyph-name="parenright" unicode=")" horiz-adv-x="229" 
d="M142 547q29 -62 40.5 -138t3.5 -145t-32.5 -124t-53.5 -95q-29 -41 -57.5 -65.5t-46.5 -35.5q-17 -11 -22 -9t-2 9q2 7 11.5 18t26.5 34t38 58.5t35 86.5q13 51 17.5 112.5t2.5 114.5q-2 52 -9.5 92t-19.5 76q-12 35 -27 67t-29 56q-14 25 -25.5 41t-16.5 24q-5 9 1.5 8
t31.5 -21q12 -10 29 -25t35 -36t36 -46.5t33 -56.5z" />
    <glyph glyph-name="comma" unicode="," horiz-adv-x="107" 
d="M87 60q4 -8 5 -20t-3 -26q-5 -14 -12.5 -27.5t-17.5 -23.5t-19.5 -15.5t-16.5 -7.5q-14 -3 -5 9q3 5 9.5 12t11.5 16q10 20 7 34q-2 6 -6 9t-9 5q-11 7 -11 15q0 5 2 11t4 10t4 5.5t7 3.5t12 4t15 1q7 -1 13 -4t10 -11z" />
    <glyph glyph-name="hyphen" unicode="-" horiz-adv-x="303" 
d="M276 337v-53h-243v53h243v0z" />
    <glyph glyph-name="period" unicode="." horiz-adv-x="123" 
d="M102 42q0 -17 -12 -29t-29 -12t-29 12t-12 29t12 29t29 12t29 -12t12 -29z" />
    <glyph glyph-name="slash" unicode="/" horiz-adv-x="282" 
d="M17 -2l199 702h44l-200 -702h-43v0z" />
    <glyph glyph-name="zero" unicode="0" horiz-adv-x="554" 
d="M527 346q2 -44 -4 -89.5t-21 -92.5q-13 -41 -24.5 -61.5t-24.5 -35.5q-28 -34 -60 -52t-73 -23q-20 -3 -39 -3q-55 -1 -96.5 16.5t-76.5 58.5q-13 14 -25 35t-25 61q-17 46 -23 92t-5 89q-1 44 5.5 89.5t22.5 92.5q14 40 26 60.5t24 35.5q30 35 64.5 52t79.5 21
q5 1 11 1.5t13 0.5q53 0 93.5 -17t75.5 -55q12 -14 24.5 -35t26.5 -60q17 -47 24 -92.5t7 -88.5zM125 329q3 -31 8 -61.5t14 -65.5q5 -15 10.5 -31t13.5 -33l209 431q-1 1 -1.5 2t-1.5 2q-17 28 -37 48q-11 11 -23.5 19t-29.5 12q-8 2 -16 2.5t-17 -1.5q-16 -1 -33 -8
q-16 -7 -26.5 -18t-20.5 -26q-19 -31 -31 -68q-12 -39 -17 -74q-5 -36 -4.5 -67.5t3.5 -62.5zM453 250q1 18 1 29.5v25.5q-2 26 -5.5 62.5t-13.5 73.5q-8 27 -18 52.5t-22 48.5l-205 -435q17 -27 35 -43q14 -13 27.5 -20t30.5 -10q15 -2 31 0q19 1 39 8q29 10 50 40
q11 14 20.5 34.5t16.5 43.5q6 23 8.5 47t4.5 43z" />
    <glyph glyph-name="one" unicode="1" horiz-adv-x="300" 
d="M273 23q18 -6 14 -14q-2 -4 -12 -5.5t-44 -3.5h-1q-14 0 -27 2t-24 2q-5 0 -10 -0.5t-12.5 -1t-18.5 -1t-27 0.5q-32 1 -34 5t10 9q7 3 16 5.5t17.5 8t14.5 14t6 23.5v560q-31 -13 -49.5 -21t-29 -13t-15.5 -7.5t-9 -3.5q-7 -4 -12.5 -2.5t-6.5 16.5q37 22 62.5 38t43 27
t28.5 18t19 12q16 9 23 10.5t12 0.5q6 -2 11 -6t6 -19v-11v-598q2 -17 3.5 -22t3.5 -7q8 -8 20.5 -10.5t21.5 -5.5z" />
    <glyph glyph-name="two" unicode="2" horiz-adv-x="493" 
d="M17 20q3 5 8.5 12t23.5 27q19 19 50.5 52t67 73.5t71 85t62.5 87.5q27 44 41.5 83.5t11.5 74.5q-2 35 -19.5 63t-38.5 45t-42.5 24t-44.5 8t-44.5 -4t-35.5 -16q-15 -11 -22 -27t-10 -33q-4 -17 -5.5 -34t-3.5 -28q-3 -11 -6.5 -15t-8.5 -6q-10 -3 -18 8q-3 5 -5.5 13.5
t-5.5 28.5q-4 26 -5 44t1 31q21 23 47 37q33 18 60.5 28t50.5 14t42.5 3t37.5 -4q42 -8 74 -25.5t52 -47.5q21 -31 29 -72t-2 -85t-35 -85.5t-51 -74.5q-13 -17 -27.5 -33t-37 -41t-57 -63.5t-87.5 -99.5l232 1q24 5 34 11.5t18 17.5t14.5 22.5t11.5 18.5q8 11 14 7
q3 -2 4.5 -5.5t-0.5 -16.5q-2 -12 -7.5 -31t-10.5 -36q-9 -32 -19 -45q-5 -8 -13.5 -10.5t-31.5 -1.5l-347 -1q-17 8 -18 12.5t1 8.5z" />
    <glyph glyph-name="three" unicode="3" horiz-adv-x="470" 
d="M398 579q5 -24 3.5 -52.5t-13 -54.5t-35 -48.5t-62.5 -34.5q53 -18 84.5 -44t46.5 -56t17 -60.5t-3 -57.5q-8 -42 -27 -73t-46 -51.5t-60.5 -31.5t-68.5 -14q-46 -3 -90 6.5t-73 23.5q-21 12 -33 24q-9 1 -16 7.5t-9 21t1.5 37.5t14.5 58q2 5 3 9l2 8q5 10 9 15t15 3
q-6 -36 0.5 -64.5t21.5 -49t36 -32.5t44 -14q59 -7 95.5 8.5t56 42.5t25.5 59t4 59q-1 39 -26 69q-14 17 -33.5 32.5t-37.5 24.5q-17 10 -30.5 13t-21.5 7q-15 5 -13 15q3 6 24 15q11 3 27.5 8.5t31.5 15.5q32 21 48 59q8 19 11.5 41t-0.5 43q-5 20 -16 38t-26 30
q-29 24 -71 26q-20 1 -40.5 -3.5t-37.5 -10.5q-16 -6 -25 -13.5t-14 -21.5q-4 -13 -4 -29.5t-4 -28.5t-11.5 -17.5t-13.5 -3.5q-3 1 -5.5 4t-5 13.5t-5.5 30.5t-8 53q31 27 63 42t62.5 21.5t59 5.5t53.5 -7q51 -11 83.5 -39t42.5 -77z" />
    <glyph glyph-name="four" unicode="4" horiz-adv-x="463" 
d="M253 259l4 297l-193 -299zM389 24q20 -7 14 -14q-2 -3 -12 -5t-43 -3h-1q-15 -1 -27.5 1.5t-23.5 2.5t-23.5 -2t-45.5 -1q-32 1 -33.5 5.5t10.5 9.5q7 2 16 4.5t17 8t14 14t6 23.5v142h-151q-41 0 -57 2.5t-23 7.5q-14 8 -9 26q0 3 2.5 8t11 20t25.5 43t47.5 76.5t77 122
t113.5 178.5q13 6 19 7t11 0q5 -2 10 -6t6 -19v-11l-4 -405l72 1q17 10 23.5 11t9.5 -2q7 -4 7 -20q-1 -9 -5.5 -20.5t-23.5 -19.5h-79v-141q2 -17 3.5 -22t4.5 -7q8 -8 20 -10.5t21 -5.5z" />
    <glyph glyph-name="five" unicode="5" horiz-adv-x="485" 
d="M450 706q2 -1 4 -5t0 -19t-7 -39.5t-11 -41.5q-5 -17 -10 -24.5t-9 -9.5q-3 -3 -4.5 -1t-3.5 13q-1 5 -2 11.5t-3.5 13t-7.5 11t-14 4.5l-241 3l-19 -142q106 -10 170 -39.5t97.5 -68.5t43 -83t7.5 -81q-3 -53 -22 -89.5t-48 -60.5t-64.5 -37t-71.5 -17q-48 -5 -89.5 1
t-69.5 19q-20 10 -32 22q-9 1 -16 8t-9.5 21.5t1 37.5t14.5 58q2 5 3 8.5t3 7.5q4 11 8.5 16t15.5 3q-6 -36 0.5 -64.5t20.5 -49t33.5 -32.5t39.5 -14q52 -6 86 5.5t54.5 34.5t29.5 54t11 63q2 35 -6 68t-36 61t-81.5 49.5t-142.5 32.5l37 286h287q24 0 31 0.5t11 2.5l6 2
t6 1z" />
    <glyph glyph-name="six" unicode="6" horiz-adv-x="517" 
d="M249 42q26 -7 54 -1t52 23q23 17 39.5 44.5t24.5 58.5q8 30 5.5 60t-13.5 54q-11 23 -31.5 39t-46.5 21t-55.5 -0.5t-54.5 -19.5q-13 -7 -24 -16t-19.5 -16.5t-15 -12.5t-9.5 -5q-2 0 -3 3q-1 7 5 23t17 33q14 23 37 42.5t56 31.5t74 11.5t76 -26.5q35 -25 57 -73.5
t19 -102.5q-4 -54 -34 -103t-76 -77q-46 -29 -100 -33t-103 14q-48 18 -84.5 57.5t-53.5 96.5t-14.5 124.5t19.5 130.5t48 113t74 84q43 35 91.5 52t83.5 25q35 7 51.5 6.5t14.5 -4.5q-2 -5 -19.5 -13t-46.5 -23t-66 -38t-69 -57t-54 -76.5t-33 -86.5q-9 -35 -10.5 -69
t1.5 -66q1 -8 1.5 -15t1.5 -14q12 -79 45 -131q17 -26 39.5 -43.5t48.5 -24.5z" />
    <glyph glyph-name="seven" unicode="7" horiz-adv-x="493" 
d="M123 696l294 3q61 0 48 -37q-73 -138 -122 -235t-80.5 -162t-47.5 -103.5t-22 -60.5t-5 -31.5t4 -16.5q-22 -21 -39.5 -32.5t-31.5 -17.5t-24.5 -7t-18.5 1q-16 2 -19 11.5t14 26.5l283 626l-204 -3q-29 -3 -43 -6.5t-23 -13.5q-9 -9 -16 -23.5t-12 -23.5t-9 -11t-11 -1
q-3 0 -6.5 2t-3.5 11.5t5.5 30t19.5 58.5q11 14 19.5 17.5t16.5 3.5q8 -1 15.5 -3.5t18.5 -2.5z" />
    <glyph glyph-name="eight" unicode="8" horiz-adv-x="516" 
d="M362 74q37 36 37 91q0 35 -15 60.5t-37.5 44.5t-49.5 32.5t-52 25.5q-51 -21 -84.5 -60.5t-33.5 -99.5q0 -29 11.5 -53t30.5 -41t44 -26.5t52 -10.5q63 2 97 37zM270 407q44 22 68.5 51t26.5 83q0 47 -30 76q-29 30 -81 30q-25 0 -47 -8.5t-38.5 -23.5t-24.5 -36.5
t-4 -48.5q3 -23 17.5 -42.5t34 -35t40.5 -27t38 -18.5zM447 575q4 -36 -6.5 -65t-31 -52.5t-47.5 -41.5t-54 -31q30 -14 60 -31.5t54 -40.5t39.5 -53.5t16.5 -69.5q0 -46 -19.5 -82t-51 -60.5t-72 -38.5t-82.5 -16t-83 7.5t-73 31t-52.5 55.5t-21.5 80q0 39 15.5 70.5
t40 56.5t55.5 43t63 29q-26 13 -53 31.5t-47.5 42t-31 53t-3.5 65.5q7 34 26 59t45.5 41.5t58 25.5t61.5 11q30 1 62.5 -3.5t60 -18t47 -37.5t24.5 -61z" />
    <glyph glyph-name="nine" unicode="9" horiz-adv-x="514" 
d="M306 136q32 34 54 76.5t33 86.5q9 35 10.5 69t-1.5 66q-1 8 -1.5 15t-1.5 14q-12 79 -45 131q-17 26 -40 44t-49 24q-26 7 -54.5 1.5t-51.5 -22.5q-24 -18 -40.5 -45.5t-24.5 -57.5q-8 -31 -5.5 -61t13.5 -53q25 -49 78 -60q26 -5 56 0.5t56 19.5q12 7 23 15.5t20 16
l15 12.5t9 5t3 -3q2 -6 -4 -22t-18 -34q-14 -22 -36.5 -42t-56.5 -32q-17 -6 -36 -9t-38.5 -2t-39 7t-37.5 19q-35 26 -57.5 74.5t-18.5 102.5t34 102.5t76 77.5t101 33t103 -15q49 -18 85.5 -57t54.5 -96q17 -57 14.5 -124.5t-19.5 -130.5q-18 -63 -49 -113.5t-74 -84.5
q-22 -17 -45.5 -29.5t-47 -22t-45 -15.5t-39.5 -9q-35 -8 -51.5 -7.5t-14.5 5.5t19.5 12.5t46.5 22.5q30 15 67.5 38t69.5 57z" />
    <glyph glyph-name="colon" unicode=":" horiz-adv-x="120" 
d="M102 42q0 -17 -12 -29t-29 -12t-29 12t-12 29t12 29t29 12t29 -12t12 -29zM102 340q0 -17 -12 -29t-29 -12t-29 12t-12 29t12 29t29 12t29 -12t12 -29z" />
    <glyph glyph-name="semicolon" unicode=";" horiz-adv-x="132" 
d="M87 60q4 -8 5 -20t-3 -26q-5 -14 -12.5 -27.5t-17.5 -23.5t-19.5 -15.5t-16.5 -7.5q-14 -3 -5 9q3 5 9.5 12t11.5 16q10 20 7 34q-2 6 -6 9t-9 5q-11 7 -11 15q0 5 2 11t4 10t4 5.5t7 3.5t12 4t15 1q7 -1 13 -4t10 -11zM102 340q0 -17 -12 -29t-29 -12t-29 12t-12 29
t12 29t29 12t29 -12t12 -29z" />
    <glyph glyph-name="equal" unicode="=" horiz-adv-x="833" 
d="M277 264v-53h-243v53h243zM277 378v-53h-243v53h243z" />
    <glyph glyph-name="question" unicode="?" horiz-adv-x="407" 
d="M191 119q22 0 37 -15.5t15 -36.5q0 -22 -15 -37.5t-37 -15.5t-37 15.5t-15 37.5q0 21 15 36.5t37 15.5zM46 610v1q26 25 50 39.5t45.5 22t41.5 9t38 0.5q82 -5 122 -54q20 -24 27 -55.5t2 -61.5t-22 -57t-42 -55t-51.5 -55.5t-43.5 -48.5q-16 -21 -19.5 -36t0.5 -30
t10.5 -31t5.5 -34q-23 -6 -33.5 4.5t-17.5 27.5q-8 16 -12.5 33.5t-5.5 31.5q0 14 6.5 24.5t23.5 31.5t42.5 51.5t43.5 60.5q17 30 24 56.5t6 50.5q-2 50 -29 82q-27 31 -72 30q-24 -1 -49.5 -11t-38.5 -30q-7 -11 -10 -23.5t-4 -25t-1 -25v-21.5q-2 -19 -7 -24.5t-13 4.5
q-8 9 -17.5 29t-14.5 35q-2 4 -3 7.5t-2 6.5q-5 13 -2 21q2 6 7.5 12t14.5 7z" />
    <glyph glyph-name="A" unicode="A" horiz-adv-x="614" 
d="M389 220h-202q-19 -62 -30 -95.5t-16.5 -49.5t-7 -20.5t-1.5 -7.5q0 -11 5 -14t11 -5t11.5 -5t7.5 -8q2 -4 -1 -8.5t-17 -4.5h-2h-118q-11 2 -8.5 6.5t7.5 8.5q9 8 16.5 10.5t15.5 10.5l219 653q13 9 20.5 10t13.5 -1q3 -1 5.5 -4t8 -14.5t13.5 -33.5t22 -62
q13 -40 31 -96t37 -115.5t37 -116t32 -97.5q13 -41 21 -65t13.5 -37t8.5 -18t6 -8q6 -5 13 -8t12 -7q9 -6 7 -12q-1 -2 -6 -2.5t-25 -1.5q-19 0 -48.5 -0.5t-49.5 -0.5t-27 1t-9 3q-4 7 5 13q5 3 11.5 6t11.5 14q2 4 2.5 9t-4.5 22t-17 51.5t-35 99.5zM199 280l173 1
q-34 141 -81 280q-27 -69 -50 -139t-42 -142z" />
    <glyph glyph-name="B" unicode="B" horiz-adv-x="521" 
d="M463 282q16 -41 15.5 -89.5t-21 -91.5t-61.5 -71.5t-106 -28.5h-238q-16 0 -24.5 3.5t-10.5 7t1.5 7t11.5 3.5q43 12 43 43v572q1 28 -43 35q-16 6 -16.5 13t11.5 11q6 2 15.5 3t30 2t54 1h86.5h36q57 0 92.5 -15t56.5 -38t29.5 -51t10.5 -55q4 -54 -17.5 -93t-88.5 -58
q51 -14 83.5 -41.5t49.5 -68.5zM160 428q0 -22 22 -22h59q23 0 41 6t36 20q6 4 11 9l10 10q13 18 17.5 42.5t3.5 48.5t-6 45.5t-16 37.5q-11 17 -27.5 27t-45.5 16q-28 5 -54 5q-18 0 -32.5 -3t-18.5 -11v-231zM386 161q4 33 -2 69.5t-22.5 67.5t-44.5 51t-68 20h-67
q-22 0 -22 -22v-303q0 -22 22 -21q40 1 74.5 4t61.5 16.5t45 41t23 76.5z" />
    <glyph glyph-name="C" unicode="C" horiz-adv-x="545" 
d="M486 650q7 -40 9 -64t1.5 -37t-2.5 -18t-5 -7q-9 -8 -15 13q-3 11 -8 30.5t-28 45.5q-26 33 -53 44.5t-51 13.5q-48 4 -82.5 -17.5t-63.5 -67.5q-11 -15 -19.5 -35t-19.5 -52q-12 -38 -17 -75t-5 -72t5 -72t17 -75q11 -32 19.5 -52t19.5 -35q29 -45 63.5 -63t82.5 -21
q12 -1 25 0t26 6t26.5 15.5t26.5 28.5q23 32 28 52t8 31q6 21 15 13q3 -2 5 -7t2.5 -18.5t-1.5 -37t-9 -63.5q-39 -27 -88.5 -39.5t-93.5 -14.5q-62 -3 -106.5 14t-82.5 61q-13 14 -24.5 34.5t-25.5 60.5q-16 47 -22.5 92.5t-5.5 89.5q-1 44 5.5 89.5t22.5 92.5
q14 40 25.5 60.5t25.5 34.5q39 43 89 58.5t109 13.5q43 -2 88 -13.5t84 -37.5z" />
    <glyph glyph-name="D" unicode="D" horiz-adv-x="585" 
d="M390 665q30 -13 58 -34.5t49.5 -57.5t34.5 -91t13 -136q0 -79 -13 -132.5t-34.5 -89.5t-49.5 -57.5t-58 -34.5q-45 -20 -91.5 -27t-92.5 -7q-33 0 -64 3q-6 0 -12.5 0.5t-11.5 0.5h-6q-19 -2 -35.5 -2.5t-28.5 1t-17.5 5t-0.5 9.5q23 12 33.5 26t14.5 35v545
q-4 21 -14.5 35t-33.5 26q-5 6 0.5 9.5t17.5 5t28.5 1t35.5 -1.5q2 0 3 -0.5t3 -0.5q5 0 11.5 0.5t12.5 1.5q16 1 32 1.5t32 0.5q46 1 92.5 -6.5t91.5 -27.5zM454 346v24q0 24 -1 48t-6 53t-14 59.5t-26 56.5q-16 26 -38.5 43.5t-48.5 27.5q-26 9 -53.5 11.5t-47.5 3.5h-13
q-15 0 -24 -4.5t-14 -21.5q-2 -6 -3 -15.5t-2 -28.5v-512q1 -18 2 -27t3 -15q5 -16 14 -20.5t24 -4.5q3 0 6 0.5t7 0.5q20 0 47.5 2.5t53.5 12.5q55 19 87 69q17 25 26 55t14 58t6 52.5t1 47.5v24z" />
    <glyph glyph-name="E" unicode="E" horiz-adv-x="482" 
d="M362 9l-222 -1q-28 2 -44 -1t-28 -5q-24 -5 -33 -2q-11 2 -1 10q5 4 12.5 8.5t12.5 13.5t7 26.5t3 58.5v463q-1 41 -2.5 58.5t-5.5 25.5t-9.5 11t-8.5 6q-6 6 1 11q8 3 26 2q11 -2 26.5 -4.5t43.5 -0.5l230 -1q24 2 31.5 4t12.5 4q8 3 13 0q3 -1 4 -5.5t-1 -19.5
q-2 -16 -4.5 -40t-4.5 -40t-4 -20t-4 -4q-5 0 -10 15q-2 9 -5 21.5t-8 23.5q-2 6 -7.5 11t-28.5 9t-69.5 5.5t-130.5 1.5v-280q55 0 85.5 1t46 3t20 4.5t6.5 5.5q5 6 9.5 12.5t9.5 10.5t10.5 3.5t7.5 -7.5q2 -6 0 -18t-5 -28q-4 -17 -7.5 -33.5t-5.5 -26.5q-3 -10 -4.5 -12
t-4.5 -2q-2 -1 -5.5 -0.5t-5.5 8.5t-3.5 20.5t-8.5 20.5q-3 4 -9 6.5t-21 4t-42.5 2t-72.5 0.5v-306q81 0 126 1.5t67.5 5.5t29 8.5t10.5 10.5q8 11 17 23.5t15 20.5t9 11t5 4q2 0 3.5 -4.5t0.5 -19.5q-2 -16 -5 -39.5t-5 -39.5t-3.5 -20.5t-3.5 -6.5q-6 -4 -14 1
q-5 2 -12 5t-32 5z" />
    <glyph glyph-name="F" unicode="F" horiz-adv-x="463" 
d="M424 699q2 -2 3 -6.5t0 -20.5q-2 -15 -4.5 -38.5t-5.5 -38.5q-2 -15 -4 -19.5t-4 -4.5q-5 2 -9 16q-3 8 -6 21t-7 24q-2 6 -8 10.5t-29 8.5t-69.5 6t-130.5 2v-281q55 0 85.5 1t46.5 3t20.5 4.5t6.5 5.5q5 6 9.5 12.5t9.5 10.5t10 3.5t7 -6.5q2 -7 0 -19t-5 -28t-6.5 -33
t-6.5 -27q-2 -10 -4 -12t-4 -2q-3 -1 -6.5 -0.5t-5.5 8.5t-3.5 20.5t-7.5 20.5q-3 4 -9.5 6.5t-21.5 4t-42 2t-73 0.5v-306q0 -12 4.5 -16.5t9.5 -7.5t10 -5.5t7 -4.5q6 -4 4 -9t-13 -4q-7 0 -18.5 2t-24.5 4t-28 3t-39 -3q-11 -2 -18.5 -3t-11.5 1q-5 1 -6 4t4 6
q5 4 13 8.5t13 14.5q5 9 6.5 26t2.5 58v464q-1 40 -2 57.5t-5 26.5q-4 8 -9.5 12t-8.5 7q-7 7 1 10q5 4 26 1q10 -2 25.5 -4.5t44.5 -0.5l229 -1q25 -2 32.5 0.5t11.5 4.5q9 4 14 1z" />
    <glyph glyph-name="G" unicode="G" horiz-adv-x="553" 
d="M507 338q19 -1 23.5 -3.5t0.5 -6.5t-12 -8.5t-15 -8.5t-10 -10.5t-4 -33.5v-32.5t0.5 -38.5l1 -40t0.5 -35q0 -31 -2.5 -44t-13.5 -24q-40 -27 -89.5 -40t-94.5 -15q-62 -2 -107.5 14.5t-83.5 61.5q-12 14 -24 35t-26 61q-16 48 -22.5 93.5t-5.5 89.5q-1 45 5.5 89
t22.5 92q14 40 26 61t25 35q40 43 90 58.5t110 13.5q44 -2 89 -13t85 -38q6 -40 8.5 -64t2 -37.5t-3 -18.5t-4.5 -7q-10 -9 -16 13q-2 11 -7.5 30.5t-28.5 46.5q-26 33 -53.5 44.5t-51.5 13.5q-48 4 -83.5 -17.5t-64.5 -67.5q-10 -16 -19 -36t-20 -53q-12 -38 -17 -74
t-5 -71t5 -72.5t17 -75.5q11 -32 20 -52t19 -35q29 -45 64.5 -63.5t83.5 -21.5q20 -2 42.5 2.5t45.5 27.5q1 56 1.5 93t-0.5 61t-2.5 37t-3.5 21q-5 15 -12.5 18.5t-20.5 9.5l-13 6.5t-9.5 8t2 8.5t19.5 7q49 5 83 6t53 -1z" />
    <glyph glyph-name="H" unicode="H" horiz-adv-x="614" 
d="M437 387v232v14q-2 19 -11 27t-17 13q-9 5 -15 7.5t-8 4.5q-5 5 7 8q3 2 9 2.5t21 0.5h1q26 0 37 -1.5t20 -1.5q10 0 22 1.5t29 2.5q21 -2 27 -4q5 -3 5 -7.5t-7 -8.5q-6 -4 -16 -9.5t-21 -25.5q0 -6 -0.5 -11.5t-0.5 -11.5v-536q2 -30 4 -38t4 -11q6 -8 14.5 -10.5
t15.5 -5.5q14 -7 10 -14q-2 -4 -10 -5.5t-29 -2.5h-1q-19 -1 -32.5 1t-24.5 3q-11 0 -21.5 -2t-35.5 0q-38 3 -26 12q5 5 19 12.5t26 30.5q4 9 5 30v256h-270v-252q2 -32 4 -41t4 -12q7 -8 15 -10.5t14 -5.5q12 -7 6 -14q-2 -4 -10 -5.5t-30 -2.5h-1q-14 -1 -27 1t-24 3
q-11 0 -21.5 -2t-35.5 0q-20 2 -25.5 5t-0.5 7q5 5 19 12.5t26 30.5q4 9 5 34v537v9q-2 19 -11 27t-17 13q-9 5 -15 7.5t-8 4.5q-5 5 7 8q3 2 9 2.5t21 0.5h1q26 0 37 -1.5t20 -1.5q10 0 22 1.5t29 2.5q21 -2 27 -4q12 -7 -2 -16q-6 -4 -16 -9.5t-21 -25.5q0 -5 -0.5 -9
t-0.5 -9v-237h270z" />
    <glyph glyph-name="I" unicode="I" horiz-adv-x="248" 
d="M170 642v-579q1 -16 2.5 -21t3.5 -8q7 -8 15 -10.5t15 -5.5q14 -7 10 -14q-2 -3 -10 -5t-29 -3h-1q-14 0 -27 2t-24 2t-21.5 -2t-35.5 0q-40 5 -23 13q4 2 11 5t13.5 8.5t12 14.5t5.5 23v569v2q-2 20 -11 27.5t-17 12.5q-9 5 -15 7.5t-8 4.5q-5 5 7 9q3 1 9.5 1.5
t20.5 0.5q26 1 37.5 -0.5t20.5 -1.5q10 -1 22 0.5t29 2.5q10 0 16 -1t11 -3q12 -7 -2 -15q-6 -4 -16 -10t-21 -26z" />
    <glyph glyph-name="J" unicode="J" horiz-adv-x="245" 
d="M206 693q6 -2 5.5 -6.5t-6.5 -8.5t-16.5 -9.5t-21.5 -26.5v-519q-1 -63 -21.5 -107.5t-54.5 -78.5q-17 -17 -35 -31t-33 -22q-16 -9 -27 -11.5t-19 -2.5q-4 0 -7 0.5t-2.5 3.5t5.5 9t16 17q11 10 26.5 25t30 40t25 63t12.5 94v520q-3 14 -11 21t-16 11q-8 5 -14 7.5
t-8 4.5q-5 5 6 8q4 2 10 2.5t20 0.5h2q26 0 36.5 -1.5t20.5 -1.5t22 1.5t29 1.5q19 0 26 -4z" />
    <glyph glyph-name="K" unicode="K" horiz-adv-x="567" 
d="M543 16q10 -6 7 -10t-14.5 -6t-28 -2.5t-33.5 0.5t-34.5 5t-39.5 22q-10 8 -22.5 22.5t-37.5 47t-65.5 89t-105.5 148.5v-250q1 -26 3 -33.5t4 -10.5q6 -8 13 -10.5t12 -5.5q14 -7 10 -14q-2 -3 -10 -5t-30 -3q-15 -1 -27.5 1.5t-23.5 2.5t-22 -2t-36 0q-19 2 -24.5 5
t-0.5 7q2 2 7 5t11.5 7.5t13 12t12.5 18.5q3 7 5 25v559q-3 17 -11.5 24t-16.5 11q-8 5 -14 7.5t-8 4.5q-5 4 6 9q4 1 10 1.5t20 0.5h2q26 0 36.5 -1.5t20.5 -1.5t22 1.5t29 2.5q20 -2 26 -4q13 -6 -1 -15q-6 -5 -16.5 -10.5t-21.5 -25.5v-4v-234q59 69 94.5 110.5t55 65.5
t27.5 34.5t11 16.5q8 14 6 20t-9 11t-15.5 9t-11.5 9q-3 4 -0.5 7.5t7.5 5.5t14 2.5t29 0.5h48t45 -1t19.5 -2.5t0.5 -3.5q-1 -2 -4 -5t-16 -11q-4 -3 -9.5 -7t-16.5 -14t-29 -28t-46 -48t-67.5 -74.5t-93.5 -107.5q62 -85 103.5 -141t69.5 -92.5t45.5 -57.5t32.5 -35
q29 -28 51.5 -39t32.5 -16z" />
    <glyph glyph-name="L" unicode="L" horiz-adv-x="484" 
d="M441 123q2 0 3.5 -4.5t0.5 -18.5q-1 -15 -4.5 -37.5t-5.5 -36.5q-2 -15 -3.5 -19.5t-3.5 -6.5q-4 -3 -14 -1q-4 1 -10.5 2t-25.5 3l-229 -1q-22 -1 -43 -1t-42 -1l-12 -2q-37 4 -26 12q5 3 19 9t26 29q4 9 6 45v535v6q-2 20 -11 28t-18 13q-8 5 -14 7t-8 5q-5 5 6 8
q4 2 10 2t20 1h2q26 0 36.5 -1.5t20.5 -1.5t22 1.5t29 1.5q19 0 26 -4q6 -2 5.5 -6.5t-6.5 -8.5t-16.5 -9.5t-21.5 -26.5v-15v-535q0 -24 3 -48q81 -3 126 -3t67.5 3t29 7.5t10.5 10.5q8 11 17 23.5t15 20.5t9 11t5 4z" />
    <glyph glyph-name="M" unicode="M" horiz-adv-x="918" 
d="M882 25q20 -9 20.5 -14.5t-7.5 -7.5t-20.5 -1t-26.5 2q-27 1 -51 0q-12 -1 -23 -1.5t-19 0.5q-15 1 -18 8q-2 3 -0.5 6.5t3.5 6.5t3.5 5.5t2.5 7.5t-2 20t-14 62q-5 22 -13 55.5t-19 84.5t-26 123t-35 173q-15 -37 -28.5 -71.5t-26.5 -67.5q-38 -98 -65.5 -174.5
t-45.5 -126.5q-14 -38 -22.5 -59t-13.5 -32t-7.5 -14t-5.5 -4q-5 -1 -10 2t-10 8q-2 2 -4.5 6t-8 19.5t-16.5 47t-30 88t-47 142.5t-68 211q-20 -114 -33 -193t-21.5 -131.5t-13 -82t-6 -45t-1 -20.5t1.5 -7q4 -8 10 -13t11 -8t9 -5.5t8 -4.5q7 -6 6 -11q0 -6 -13 -7
q-13 0 -35 3q-11 2 -23 3t-26 0q-14 0 -29 -2t-25 -3q-11 -2 -16 -1.5t-10 1.5q-5 2 -8.5 5t4.5 14q29 13 45 25t25 27t14 36.5t11 54.5l14 77t17 91t17.5 93.5t15.5 84.5q13 76 20.5 114.5t13.5 55.5t12 20t14 -2q2 -1 5.5 -5t11 -21t20.5 -50.5t34.5 -94.5t52.5 -154
t76 -227q33 88 59.5 157.5t47.5 124.5q37 97 59 150.5t34 79.5t16.5 32t7.5 8q8 5 14.5 4t12.5 -12q3 -6 6.5 -15.5t8 -26.5t10 -42.5t13.5 -63.5t18 -86.5t20 -98.5t18.5 -98t14.5 -85q6 -36 13 -61t17 -42t23.5 -28t31.5 -19z" />
    <glyph glyph-name="N" unicode="N" horiz-adv-x="582" 
d="M59 597q-1 40 -0.5 61.5t2.5 31t5.5 11t8.5 1.5q3 0 7.5 -2t18 -15.5t39 -43t69 -84t108.5 -138.5t158 -207v424v2q-2 20 -11 28t-17 12q-9 5 -15 7.5t-8 4.5q-4 6 7 9q3 1 9 1.5t21 0.5h1q26 1 35.5 -0.5t13.5 -1.5q4 -1 7.5 1t20.5 2q9 0 14 -1t7 -3q4 -3 3.5 -7.5
t-6.5 -8.5q-6 -3 -16 -9t-15 -26v-548q0 -32 1 -52.5t-1 -31.5t-5 -12.5t-7 -0.5q-2 0 -4 1t-6.5 5.5t-11.5 13.5t-19 26l-362 497v-475q1 -16 2.5 -21t3.5 -7q6 -8 14.5 -10.5t15.5 -6.5q6 -3 9 -7.5t1 -7.5q-2 -4 -10 -6t-29 -3h-1q-14 2 -20 2.5t-11 0.5t-13 -0.5
t-33 -1.5q-19 0 -24.5 4.5t1.5 9.5q4 3 11 6t13.5 9t12 15t5.5 23v528z" />
    <glyph glyph-name="O" unicode="O" horiz-adv-x="557" 
d="M524 354q2 -43 -4 -88.5t-21 -91.5q-13 -41 -24.5 -61.5t-23.5 -35.5q-48 -56 -110 -70q-14 -3 -29.5 -5t-32.5 -2q-54 -1 -95.5 16.5t-76.5 57.5q-12 15 -24 35.5t-26 60.5q-16 46 -22 91.5t-6 88.5t6 88.5t22 92.5q14 39 26 60t25 35q32 37 69 54.5t86 19.5h11
q53 1 93 -16t75 -55q13 -14 25.5 -34.5t26.5 -60.5q17 -46 23.5 -91t6.5 -89zM450 259q2 18 2 29.5t-1 25.5q-1 26 -5 62.5t-14 72.5q-10 37 -24.5 72t-31.5 63q-13 22 -27.5 41t-33.5 30.5t-42.5 13t-54.5 -11.5q-24 -11 -39.5 -30.5t-26 -43.5t-16.5 -51t-10 -53
q-5 -35 -5 -72.5t3 -68.5q3 -30 8 -61t14 -65q5 -17 11 -34.5t16 -36.5q11 -18 24 -35.5t27 -31.5q26 -25 57 -29q23 -3 51 2q5 2 9.5 2.5t9.5 2.5q29 11 49 40q23 31 37 78q6 23 8.5 47t4.5 42z" />
    <glyph glyph-name="P" unicode="P" horiz-adv-x="495" 
d="M455 509q2 -40 -8 -73.5t-33 -55.5q-29 -26 -59 -40.5t-68 -19.5q-27 -2 -45 -3t-29 -0.5t-17 1.5t-9 3q-9 4 -9 10v2q2 8 12 9q7 2 17 2t21 2q23 2 47 10q13 4 29 11.5t36 26.5l2 2q16 18 27.5 43t13.5 53t-7.5 55.5t-23.5 50.5t-34 38t-50 23t-60 8q-17 0 -29.5 -3
t-16.5 -10v-586q0 -23 8.5 -34t31.5 -15q7 0 11 -4t2 -7.5t-11.5 -6.5t-29.5 -2h-120q-12 0 -18.5 3.5t-7.5 7.5t3 7.5t12 3.5q32 11 32 48v566q1 28 -28 34q-16 7 -17 14t8 11q4 2 12 3t26 2t49.5 1h82.5h40q57 0 95.5 -17.5t62.5 -45t35.5 -61.5t13.5 -67z" />
    <glyph glyph-name="Q" unicode="Q" horiz-adv-x="571" 
d="M921 -60q11 0 13.5 -5t-9.5 -14q-13 -9 -39 -19.5t-56 -15.5t-61.5 -3.5t-66.5 6.5q-33 5 -70.5 13t-85.5 27l-174 89q-15 -7 -30 -11t-30 -6q-20 -3 -38 -3q-55 0 -96 17t-76 58q-12 14 -23.5 34.5t-25.5 60.5q-16 47 -22.5 92.5t-5.5 88.5q-1 43 5.5 88.5t22.5 91.5
q14 40 25.5 61t23.5 35q30 34 64 51.5t78 21.5q5 1 11.5 1h12.5q53 1 92.5 -16t74.5 -56q13 -14 25 -34.5t26 -59.5q17 -46 24 -91.5t7 -88.5q2 -43 -4 -88.5t-21 -92.5q-13 -40 -24.5 -61t-23.5 -35q-3 -3 -5.5 -6.5t-5.5 -5.5l176 -89q33 -15 65 -24q52 -16 93 -19.5
t71 -2t50.5 6t32.5 4.5zM394 90q11 15 20.5 35t15.5 43q7 23 9.5 47.5t3.5 44.5q2 20 2 34t-1 27t-2 25t-3 24t-3 24.5t-3 25.5q-2 12 -5.5 26t-10.5 32t-17 40t-21 42t-22.5 36t-23.5 29q-12 12 -24.5 20.5t-28.5 12.5q-15 3 -33 1q-16 -1 -33 -8q-15 -7 -26 -18t-20 -26
q-10 -14 -17.5 -32t-14.5 -40t-12 -45.5t-8 -42.5q-4 -38 -3 -61q1 -13 1.5 -25t2.5 -24q2 -13 2.5 -25t2.5 -25q4 -24 14 -59q5 -18 12.5 -40.5t18.5 -43.5q11 -22 24.5 -40t27.5 -31t26.5 -20t29.5 -9q13 -3 32 -1q18 1 38 8q16 5 27 15t22 24z" />
    <glyph glyph-name="R" unicode="R" horiz-adv-x="604" 
d="M573 16q7 -4 3 -7t-15 -5t-26.5 -3.5t-30.5 -2.5t-32 3t-45 28q-13 10 -27.5 27.5t-39.5 49.5t-63 82t-98 126h-21v-246q0 -23 8 -35.5t32 -15.5q7 0 11 -4t2 -7.5t-11.5 -6.5t-29.5 -2h-121q-16 0 -24.5 3.5t-10.5 7.5t2 7.5t12 3.5q41 7 43 50v565q1 27 -43 35
q-17 7 -17.5 14t11.5 11q6 2 15.5 3t29.5 1.5t52.5 0.5h84.5h40q57 0 95.5 -17t62.5 -44t35 -60.5t13 -66.5q3 -41 -7 -75.5t-33 -55.5q-29 -26 -59.5 -40.5t-68.5 -19.5q-3 0 -6.5 -0.5t-6.5 -0.5q42 -51 71.5 -90.5t52 -68.5t40 -49.5t33.5 -35.5q18 -17 32.5 -27.5
t25 -17t18 -9.5t11.5 -5zM189 346q46 0 93 9q13 4 23 5q14 7 27 15t24 19l2 2q15 17 27 42t14 53q2 29 -7.5 57.5t-23.5 51.5q-15 23 -34.5 38.5t-49.5 23.5t-60 8q-17 0 -30 -3t-16 -11v-309q3 -1 11 -1z" />
    <glyph glyph-name="S" unicode="S" horiz-adv-x="461" 
d="M408 260q20 -38 18.5 -86t-36.5 -93q-18 -23 -45.5 -42.5t-67 -29.5t-92 -7t-119.5 26q-12 5 -17.5 0t-8.5 -6q-6 -1 -11 22q-2 11 -4 28t-3 45v30t3 26t9 11t17 -15q2 -8 4.5 -20.5t6.5 -23.5q8 -32 20.5 -47t34.5 -24q21 -9 51 -13.5t63 1.5q32 6 62.5 23t44.5 43
t9.5 58t-28.5 61t-63.5 52t-80.5 47q-40 24 -73.5 51.5t-52.5 65.5q-20 38 -18.5 85.5t36.5 93.5q18 22 45 42t63.5 29.5t83 5.5t103.5 -29q12 -5 17.5 -0.5t8.5 5.5q6 1 11 -22q2 -11 4 -27t1 -39q0 -12 -1 -24t-4.5 -18.5t-10 -5t-17.5 17.5q-2 8 -4 15.5t-4 15.5
q-6 20 -17.5 33t-29.5 23t-42 15.5t-53 0.5t-58.5 -22t-43.5 -43t-9.5 -58t28.5 -61t63.5 -52.5t80.5 -46.5q40 -24 73.5 -51.5t52.5 -65.5z" />
    <glyph glyph-name="T" unicode="T" horiz-adv-x="498" 
d="M478 687q1 -11 -1.5 -30.5t-6.5 -34.5q-3 -15 -7 -22.5t-7 -9.5q-8 -6 -11 6q-2 5 -2.5 13.5t-0.5 17.5q-1 9 -3.5 16.5t-14.5 13t-36.5 8t-68.5 0.5q-30 -3 -29 -25l-1 -10v-551q1 -14 2 -22.5t2 -13.5t2 -7t3 -3q6 -6 13.5 -8.5l13.5 -4.5q13 -5 10 -12q-2 -3 -10 -4.5
t-30 -2.5q-15 -1 -27.5 1t-23.5 3q-11 0 -22 -2t-36 0q-19 2 -25 5t-1 6q5 4 19 11t24 30q1 2 2 7.5t2 11.5v556q-1 17 -13 27q-9 3 -20 3.5t-20 -0.5q-27 -1 -37 -0.5t-20 -1.5t-22 -6t-22 -13t-16 -21.5t-11 -19.5t-9 -7.5t-6 1.5t-1.5 6t2.5 18q2 13 4 32.5t7 32.5
q4 12 10 15.5t17 4.5q15 -5 39 -3.5t56 1.5h193h61.5t32.5 1q6 0 9 1q6 0 12 0.5t11 1.5q5 0 9 -2.5t5 -13.5z" />
    <glyph glyph-name="U" unicode="U" horiz-adv-x="638" 
d="M598 694q8 -3 8 -11q-1 -5 -12 -12q-7 -4 -16.5 -9t-14.5 -13q-3 -6 -3.5 -14.5t-1.5 -26.5v-314q-1 -21 -1.5 -39.5t-2.5 -35.5q-9 -89 -41 -135t-79 -66q-43 -18 -100 -21q-3 -1 -8 -1q-30 -2 -63.5 1t-65.5 15q-17 6 -33 15.5t-30 25t-25.5 39t-18.5 56.5
q-7 29 -10 65t-5 79v329q-1 5 -1 8.5t-1 6.5q-5 22 -13 30t-15 11t-10 4.5t-5 3.5t-2 4.5t5 4.5q9 3 37 3h67h27.5t20.5 -2q17 -1 17 -8q1 -5 -8 -12q-5 -2 -9.5 -5.5t-10.5 -10.5q-5 -5 -9 -14t-3 -30v-322q2 -76 10.5 -127t31.5 -81q21 -29 56.5 -40t70.5 -8q4 1 7.5 1
t7.5 1q38 6 66.5 26t45.5 47t21.5 60t5.5 71v51v320q-2 24 -3 29.5t-4 8.5q-8 8 -20 15q-6 3 -11 4.5t-9 3.5q-8 8 -3 14q3 8 23 8q11 0 26.5 -1.5t30.5 -1.5t28 0.5t24 1.5q24 2 31 -2z" />
    <glyph glyph-name="V" unicode="V" horiz-adv-x="603" 
d="M577 702q11 -2 8.5 -6.5t-7.5 -8.5q-9 -8 -16.5 -10.5t-15.5 -10.5l-221 -654q-13 -9 -20.5 -10t-13.5 1q-3 1 -5.5 4t-8 14.5t-14 34t-21.5 62.5q-14 40 -32 96t-37 116t-37.5 116.5t-31.5 98.5q-14 41 -22 65t-13 36.5t-8 17t-6 7.5q-7 6 -14 9t-12 6q-10 6 -6 12
q1 2 6 2.5t25 1.5h22t26.5 0.5t27 0.5h23.5q20 0 26.5 -1t8.5 -3q5 -6 -5 -13q-5 -3 -11.5 -6t-11.5 -14q-2 -4 -2.5 -11.5t5 -29t19 -62t39.5 -110.5l92 -310q27 70 50 140t43 142l12 43q19 62 30 98t16.5 55.5t7 26t1.5 10.5q0 11 -5 13.5t-11 4.5t-11.5 5t-7.5 8t1 9
t17 4h2h119z" />
    <glyph glyph-name="W" unicode="W" horiz-adv-x="907" 
d="M887 699q5 -2 8.5 -5.5t-4.5 -14.5q-27 -11 -42.5 -21t-24.5 -24.5t-13.5 -36t-10.5 -54.5l-14 -77t-16.5 -91t-17 -93.5t-15.5 -84.5t-12.5 -66.5t-9.5 -49t-7 -34t-6 -22.5q-6 -18 -12 -20.5t-14 1.5q-2 1 -5.5 5.5t-10.5 21t-20 51t-34.5 95.5t-53 154.5t-76.5 228.5
q-26 -70 -47.5 -128t-39.5 -106q-29 -77 -49.5 -130.5t-35 -88.5t-23 -55t-14 -30t-8.5 -13t-5 -4q-8 -5 -14.5 -4t-13.5 12q-3 6 -6.5 16t-8 27t-10 42.5t-13.5 62.5t-19 86.5t-23 101.5t-23.5 101t-20.5 84q-11 43 -19.5 67.5t-17.5 37t-18.5 18t-21.5 11.5
q-20 10 -15.5 17.5t12.5 9.5t21 1t26 -3q26 -1 50 0q12 2 23.5 3.5t19.5 2.5q14 0 18 -7q2 -5 -3 -15q-2 -4 -3.5 -8.5t-2.5 -11.5q0 -3 0.5 -8t2 -13.5t4.5 -22.5t8 -36q5 -21 12.5 -52t18 -80.5t25 -120.5t34.5 -172q21 51 39.5 98t34.5 91q31 81 54 144t38 106
q14 37 22.5 59t13.5 33t7.5 14t5.5 3q5 2 10 -1.5t10 -8.5q2 -2 4.5 -6t8 -19.5t16.5 -47t30 -88t47 -142.5t68 -211q19 114 32.5 193.5t22 132t13 82t6 45t1 20t-1.5 6.5q-4 6 -9.5 9.5t-10.5 5.5q-9 3 -13 7q-2 2 -4.5 6t-2.5 7q1 6 12 9q6 1 14 1.5t18 0.5q11 -1 23 -2
t26 -2q14 0 27.5 0.5t23.5 1.5h15t10 -2z" />
    <glyph glyph-name="X" unicode="X" horiz-adv-x="559" 
d="M542 11q1 -2 -4.5 -4.5t-23.5 -4.5t-46.5 -1.5t-51.5 0.5h-36t-19 2q-13 1 -6 8q3 4 9 8l12 8q5 5 9 11t2 24q-60 118 -124 239q-30 -60 -60 -118t-60 -117q-10 -18 -4.5 -27t13.5 -14q8 -6 14 -10t9 -7t1.5 -5t-12.5 -3t-29.5 -0.5t-34.5 1.5q-17 0 -27.5 0.5t-16.5 1.5
q-9 1 -9.5 4t3.5 6t10.5 6.5t11.5 6.5q6 4 10 10q1 2 3 5.5t8 14.5t17.5 32t31.5 58q20 36 47.5 86.5t53.5 104.5q-75 154 -116 235t-51 92q-6 6 -16 10.5t-18.5 8.5t-12 8t3.5 10q58 0 91 0.5t50.5 0t23 -1t7.5 -1.5q12 -3 0 -12q-5 -5 -12 -10t-10 -13q-2 -3 -1 -8.5
t6.5 -18.5t17 -36.5t30.5 -63.5q13 -26 28 -57.5t31 -68.5q20 37 37.5 68.5t31.5 57.5q22 40 34.5 63.5t18.5 36.5t6.5 18.5t-0.5 8.5q-4 8 -12.5 13t-13.5 10q-12 8 -1 12q2 1 7 1.5t17.5 1t34.5 0t60 -0.5q4 -8 1 -10.5t-8 -4.5t-12 -5t-17 -17q-8 -10 -47.5 -80.5
t-113.5 -204.5q14 -32 30 -64.5t31.5 -63t30.5 -58l27 -49.5q20 -38 31.5 -58.5t17 -31t7.5 -13t3 -3.5q3 -5 13 -8q10 -5 21.5 -9.5t11.5 -9.5z" />
    <glyph glyph-name="Y" unicode="Y" horiz-adv-x="561" 
d="M536 697q5 -2 8.5 -5t-4.5 -14q-29 -15 -46 -28t-30 -29t-25.5 -39t-33.5 -58q-14 -23 -32 -52.5t-43 -71.5v-330q1 -17 2.5 -21.5t3.5 -7.5q7 -8 15.5 -10.5t14.5 -5.5q14 -7 11 -16q-2 -3 -10 -5t-30 -3h-1q-14 0 -27 2t-24 2q-11 1 -21.5 -0.5t-35.5 -3.5
q-19 0 -24.5 4.5t1.5 9.5q4 3 11 6.5t13.5 9t12 14.5t5.5 24v312q-20 35 -33.5 59t-23.5 41t-16.5 28.5t-11.5 21.5q-18 33 -28 55.5t-20.5 39t-25 29t-40.5 24.5q-20 9 -20.5 14.5t7.5 7.5t20.5 1t26.5 -3q13 -2 25.5 -3t24.5 0q13 2 23.5 3.5t18.5 2.5q16 0 18 -6
q2 -5 -3 -15q-2 -5 -3.5 -9.5t-1.5 -10.5q0 -3 0.5 -7.5t4.5 -14t12 -25t22 -41.5q13 -24 32 -58t48 -82q45 78 69.5 121.5t36 65t13.5 27.5t2 8q-1 12 -8 17.5t-15 8.5q-4 2 -7 3t-5 4t-2.5 7t4.5 6t13.5 0.5t17.5 -2.5q18 -1 40 0h49h15t10 -2z" />
    <glyph glyph-name="Z" unicode="Z" horiz-adv-x="554" 
d="M504 146q2 -5 0 -13t-7 -25t-12.5 -39.5t-12.5 -38.5q-3 -10 -7.5 -15.5t-21.5 -10.5q-90 -1 -153 -2t-105 -1.5t-66 -0.5t-37 0.5t-18 1t-8 0.5q-8 2 -12 8.5t-1 26.5l344 623l-204 -2q-29 -4 -42.5 -7.5t-22.5 -12.5q-10 -10 -16.5 -24.5t-11.5 -22.5q-5 -9 -9 -11
t-11 -2q-3 0 -6.5 2t-3 12t6 30t19.5 58q10 14 18.5 17.5t16.5 3.5q8 -1 15.5 -3.5t18.5 -2.5l292 3q61 0 48 -37l-340 -621q67 0 110 1.5t70 3.5t41.5 5.5t24.5 8.5q22 10 34 25.5t21 29.5t16.5 23.5t13.5 13.5t11 2t7 -7z" />
    <glyph glyph-name="underscore" unicode="_" horiz-adv-x="444" 
d="M406 53v-53h-378v53h378z" />
    <glyph glyph-name="a" unicode="a" horiz-adv-x="506" 
d="M330 204h-176q-17 -54 -26.5 -86t-14 -49t-6 -23.5t-1.5 -9.5q0 -9 4.5 -11.5t9.5 -4.5t9.5 -4.5t6.5 -6.5t-0.5 -8t-14.5 -4h-1h-104q-9 2 -7 6t6 8q8 7 14.5 8.5t13.5 9.5l192 571q11 8 17.5 9t11.5 -1q3 -1 5.5 -4t7 -12.5t11.5 -29t19 -54.5t27.5 -84t32 -101
t32.5 -101t28 -85l19 -57t11.5 -32.5t7 -16t5.5 -7.5q5 -5 11 -7.5t11 -4.5q8 -7 6 -11q-1 -2 -5.5 -2.5t-21.5 -0.5q-8 0 -19.5 -0.5t-23.5 -1t-23 -0.5h-20q-18 1 -23.5 1.5t-7.5 2.5q-5 5 4 11q4 3 9.5 5.5t10.5 12.5q1 3 1.5 9.5t-3.5 24.5t-14.5 51t-31.5 90zM164 241
l152 1q-15 62 -33 122.5t-38 121.5q-23 -61 -43.5 -121.5t-37.5 -123.5z" />
    <glyph glyph-name="b" unicode="b" horiz-adv-x="447" 
d="M410 245q14 -36 13.5 -78.5t-18 -80t-53.5 -62.5t-93 -25h-209q-14 0 -21 3t-9 6t1 6t10 3q38 11 38 38v500q1 24 -37 30q-14 6 -15 12t10 10q5 1 13.5 2t26 2t47 1h76.5h31q49 0 80.5 -13t49.5 -33.5t25.5 -45t9.5 -48.5q4 -47 -15 -81t-77 -50q87 -24 116 -96zM145 372
q0 -19 19 -19h52q38 0 67 22q10 7 18 18q12 15 16 36.5t3 42.5t-5.5 40t-13.5 33t-24 23t-41 14q-11 2 -23 3t-23 1q-17 0 -29.5 -2.5t-15.5 -9.5v-202zM343 139q3 29 -2 61t-19.5 58.5t-39 44t-59.5 17.5h-59q-19 0 -19 -19v-264q0 -20 19 -19q35 1 65.5 4t54.5 14.5
t39 35.5t20 67z" />
    <glyph glyph-name="c" unicode="c" horiz-adv-x="478" 
d="M424 567q6 -35 8 -56t1.5 -32.5t-2.5 -16t-4 -5.5q-5 -4 -10 -4.5t-7 9.5q-3 10 -5.5 28.5t-22.5 41.5q-23 28 -46.5 36t-44.5 10q-42 3 -72 -12t-56 -55q-8 -14 -16.5 -30.5t-17.5 -45.5q-11 -33 -15 -65.5t-4 -63.5t4 -63.5t15 -64.5q9 -29 17.5 -46t16.5 -30
q25 -39 52 -52.5t68 -15.5q21 -1 48.5 6.5t50.5 39.5q20 28 23 41.5t6 23.5q4 17 13 11q2 -2 4.5 -6.5t3.5 -16t-0.5 -32.5t-7.5 -56q-35 -23 -78 -34t-81 -13q-54 -2 -93.5 13t-71.5 53q-11 12 -21.5 30t-22.5 53q-14 41 -19.5 81t-4.5 78q-1 38 4.5 77t19.5 80
q12 35 22.5 53t22.5 30q34 38 77.5 52.5t95.5 12.5q38 -2 76.5 -11.5t73.5 -32.5z" />
    <glyph glyph-name="d" unicode="d" horiz-adv-x="504" 
d="M343 582q27 -12 51.5 -30.5t43 -50t30 -79.5t11.5 -118q0 -69 -11.5 -116t-30 -78.5t-43 -50t-51.5 -30.5q-39 -17 -79.5 -23.5t-81.5 -6.5q-28 0 -56 3q-5 0 -10 0.5t-10 0.5q-2 0 -3 -0.5t-3 -0.5q-16 -1 -30.5 -1.5t-25 0.5t-15.5 4t-1 9q21 11 30 23t12 30v477
q-3 18 -12 30t-30 23q-4 6 1 9t15.5 4t25 0.5t30.5 -1.5h6h10t10 1q14 1 28 1.5t28 0.5q41 1 81.5 -6t79.5 -24zM399 304v20q0 21 -1 42t-5 46q-4 26 -12.5 53t-22.5 49q-29 45 -76 62q-23 8 -46.5 10t-42.5 3h-10q-14 0 -21.5 -4t-12.5 -18q-2 -6 -3 -14t-1 -25v-448
q1 -15 1.5 -23t2.5 -13q5 -14 12.5 -18t21.5 -4q7 0 10 1q19 0 42.5 2.5t46.5 10.5q47 17 76 61q14 21 22.5 47.5t12.5 50.5q4 25 5 46t1 42v21z" />
    <glyph glyph-name="e" unicode="e" horiz-adv-x="416" 
d="M313 7l-194 -1q-25 2 -39 -0.5t-24 -4.5q-11 -2 -18 -3t-11 1q-10 2 -1 9q4 3 10.5 7t11.5 12t6 23.5t2 50.5v405q-1 35 -2 50.5t-4 22.5q-4 8 -8.5 10.5t-7.5 4.5q-4 6 1 10q7 4 22 1q9 -1 23 -3t39 0l201 -2q21 2 27.5 4t10.5 3q6 3 12 1q2 -2 3 -5.5t-1 -16.5
q-1 -14 -3.5 -35t-4.5 -35t-3.5 -17.5t-3.5 -3.5q-4 0 -8 13q-3 8 -5.5 18.5t-6.5 21.5q-2 5 -7 9t-25 7t-60.5 5t-113.5 2v-245q48 0 74.5 1t40 2.5t17.5 3.5t6 5q5 5 8.5 11t8.5 9q5 4 9 3.5t6 -6.5q2 -5 0 -16t-4 -25q-3 -14 -6.5 -29t-5.5 -23t-3.5 -10t-3.5 -2
q-2 -1 -5 -0.5t-5 7.5q-2 6 -3.5 17t-6.5 19q-3 3 -8.5 5.5t-18.5 3.5t-36.5 1.5t-63.5 0.5v-267q70 0 109.5 1.5t59.5 4.5t26 7t9 9q7 10 14.5 20.5t12.5 18.5q11 12 13 13q2 0 3 -3.5t0 -17.5t-4 -34.5t-5 -34.5t-3 -18t-3 -5q-5 -3 -12 0q-4 2 -10.5 4.5t-27.5 4.5z" />
    <glyph glyph-name="f" unicode="f" horiz-adv-x="405" 
d="M368 610q2 -2 2.5 -5.5t-0.5 -17.5q-2 -14 -4 -34t-4 -34q-2 -13 -3.5 -16.5t-3.5 -3.5q-5 0 -9 13q-2 8 -4.5 18.5t-6.5 21.5q-2 5 -7 9.5t-25 7.5t-61 4.5t-114 1.5v-246q48 0 75 1.5t40.5 3t17.5 3.5t6 5q4 5 8 11t9 9t9 3t6 -6q2 -5 0 -16t-5 -25t-6 -29t-5 -23
q-2 -9 -3.5 -10.5t-3.5 -2.5q-2 0 -5 0.5t-5 7.5q-2 6 -3.5 17t-7.5 19q-3 3 -8 5.5t-18.5 3.5t-37 1.5t-63.5 0.5v-267q0 -11 3.5 -15t8.5 -7q5 -2 9 -4t6 -4q4 -3 4 -8q-1 -4 -12 -4q-6 1 -16 2.5t-21 3.5t-24 2.5t-35 -2.5q-18 -5 -26 -3q-10 3 -2 10q5 3 11.5 7t11.5 12
t6 23.5t2 50.5v406q-1 35 -2 50t-5 23q-3 8 -8 11t-7 6q-7 5 1 9q5 3 22 0q9 -2 23 -4t38 0l201 -1q22 -2 28.5 0t10.5 4q6 5 12 1z" />
    <glyph glyph-name="g" unicode="g" horiz-adv-x="486" 
d="M438 294q16 -1 20 -3t1 -5q-3 -4 -10.5 -8t-12.5 -7q-6 -4 -8.5 -9.5t-3.5 -28.5v-27v-33.5t0.5 -34.5t0.5 -30q0 -26 -1.5 -37.5t-12.5 -20.5q-34 -23 -76.5 -34t-80.5 -13q-53 -2 -92 12.5t-71 52.5q-11 12 -21.5 30t-21.5 52q-14 41 -19.5 80.5t-4.5 76.5
q-1 38 4.5 77.5t19.5 79.5q11 35 22 52.5t22 29.5q34 38 77 51t94 11q37 -2 75.5 -11t72.5 -32q6 -35 8 -55.5t1.5 -32t-2.5 -16t-4 -5.5q-9 -7 -13 11q-2 9 -6.5 26t-24.5 40q-23 28 -46 37.5t-44 11.5q-42 4 -71.5 -14.5t-54.5 -58.5q-9 -13 -17 -30t-17 -45
q-11 -32 -15 -64.5t-4 -62.5t4 -62t15 -64q9 -29 17 -46t17 -29q25 -38 54.5 -54.5t71.5 -18.5q17 -1 36 2.5t39 23.5q1 48 1.5 79.5t-0.5 52t-2 31.5t-3 18q-4 14 -10.5 16.5t-17.5 7.5q-6 2 -11.5 5.5t-7.5 7t1.5 7t16.5 6.5q42 4 71 4.5t45 -0.5z" />
    <glyph glyph-name="h" unicode="h" horiz-adv-x="511" 
d="M376 338v203v12q-1 17 -8.5 24t-15.5 11t-13 6t-7 4q-5 5 6 8q2 1 7.5 1.5t18.5 0.5h1q23 0 32.5 -1.5t17.5 -1.5t18.5 1.5t26.5 2.5q17 -2 22 -4t5 -6t-5 -7q-6 -4 -15 -9t-18 -23q-1 -5 -1 -9.5v-9.5v-469q2 -26 3.5 -33t3.5 -10q5 -7 12.5 -9t13.5 -5q12 -5 9 -12
q-2 -3 -9 -4.5t-26 -2.5q-17 -1 -28.5 1t-21.5 2q-9 0 -18.5 -1.5t-31.5 0.5q-33 3 -22 10q5 5 16.5 11.5t22.5 26.5q2 5 4 26v224h-235v-220q1 -29 2.5 -36.5t3.5 -10.5q6 -7 13 -9t12 -5q11 -5 6 -12q-2 -3 -9 -4.5t-26 -2.5h-1q-13 -1 -24 1t-21 2q-9 0 -18.5 -1.5
t-31.5 0.5q-33 3 -22 10q5 5 16.5 11.5t22.5 26.5q4 8 4 30v469v8q-1 17 -8.5 24t-15.5 11t-13 6t-7 4q-3 5 6 8q3 1 8 1.5t18 0.5h1q23 0 32.5 -1.5t17.5 -1.5t19 1.5t26 2.5q17 -2 23 -4q5 -2 4.5 -6t-5.5 -7q-5 -4 -14.5 -9t-18.5 -23v-15v-207h235z" />
    <glyph glyph-name="i" unicode="i" horiz-adv-x="201" 
d="M144 565v-507q1 -14 2.5 -18.5t3.5 -6.5q5 -6 12.5 -8.5t13.5 -5.5q12 -5 9 -12q-2 -3 -9 -4.5t-26 -2.5h-1q-12 0 -23.5 1.5t-20.5 1.5q-9 1 -18.5 -1t-31.5 0q-33 3 -20 11q3 2 9 4.5t12 7t11 12.5t5 20v498v2q-2 17 -9.5 24t-15.5 11t-13 6t-7 4q-3 5 6 8q3 1 8 1.5
t18 0.5q23 0 33 -1t18 -1q9 0 19.5 1t25.5 2q18 -2 23 -4q11 -5 -1 -13q-5 -3 -14.5 -8.5t-18.5 -22.5z" />
    <glyph glyph-name="j" unicode="j" horiz-adv-x="207" 
d="M182 602q5 -2 4.5 -6t-5.5 -7q-5 -4 -14.5 -9t-18.5 -23v-1v-453q-1 -54 -19 -93.5t-47 -69.5q-15 -15 -31 -26.5t-29 -19.5q-14 -8 -23.5 -10.5t-17.5 -2.5q-7 0 -8 4.5t19 22.5q9 9 23 22t26.5 35t22 55t11.5 82v454q-3 14 -10 19.5t-14 9.5q-8 4 -13 6t-7 4q-4 5 6 7
q3 2 8 2.5t18 0.5h2q22 0 31.5 -1.5t17.5 -1.5q9 0 19.5 1.5t25.5 1.5t23 -3z" />
    <glyph glyph-name="k" unicode="k" horiz-adv-x="476" 
d="M464 11q9 -5 6 -8.5t-12.5 -5.5t-24 -2.5t-29.5 0.5t-30 4.5t-34 19.5q-9 7 -20 19.5t-32.5 41t-57.5 78t-93 129.5v-218q2 -23 3 -29.5t3 -8.5q5 -7 11.5 -9.5t11.5 -4.5q11 -7 8 -13q-2 -3 -8.5 -4.5t-25.5 -2.5h-1q-13 0 -24 1.5t-21 2.5q-9 0 -18.5 -2t-31.5 0
q-32 3 -22 11q5 4 16.5 10.5t22.5 26.5q2 5 4 22v488q-2 14 -9.5 20.5t-14.5 10.5q-8 4 -13 6t-7 4q-5 5 6 8q3 1 8 1.5t18 0.5h1q23 0 32.5 -1t17.5 -1t19 1t26 2q17 -2 23 -4q5 -2 4.5 -6t-6.5 -7q-5 -3 -14 -8t-19 -23v-4v-204q52 60 83 96.5t48 57.5t24 30t10 15
q7 12 5 17.5t-8 9.5t-13 7.5t-10 7.5t-1 6.5t7 4.5t12 2.5t25 0.5q18 1 43 1t39 -2q14 0 16.5 -1.5t0.5 -3.5q-1 -2 -3.5 -4.5t-13.5 -9.5q-5 -3 -15 -10.5t-34 -32t-66.5 -71.5t-113.5 -130q54 -74 90.5 -123.5t60.5 -81t39.5 -50t28.5 -30.5q26 -24 45.5 -33.5t27.5 -14.5
z" />
    <glyph glyph-name="l" unicode="l" horiz-adv-x="426" 
d="M394 109q2 0 3.5 -3.5t-0.5 -16.5q-1 -13 -3.5 -32.5t-4.5 -32.5t-3 -17t-3 -5q-4 -3 -13 -1q-3 1 -8.5 2t-22.5 2l-201 -1q-18 -1 -36.5 -1t-37.5 -1l-10 -1q-34 3 -23 10q5 3 17 8.5t22 25.5q3 6 5 39v467v6q-1 17 -8.5 24t-15.5 11l-13 6.5t-7 4.5q-4 4 6 7q3 1 8 1.5
t18 0.5h1q23 0 32.5 -1t17.5 -1t18.5 1t26.5 2q17 -2 23 -4q5 -2 4.5 -6t-6.5 -7q-5 -3 -14 -8t-19 -23v-14v-467q0 -21 3 -42q71 -3 110.5 -2.5t59 2.5t25.5 6t9 9q7 10 15 20.5t13 18.5q5 7 7.5 9.5t4.5 3.5z" />
    <glyph glyph-name="m" unicode="m" horiz-adv-x="793" 
d="M768 19q17 -8 18 -12.5t-7 -6.5q-7 -2 -18 -1t-23 2h-22t-22 -1q-11 0 -20.5 -0.5t-16.5 0.5q-13 0 -15 6q-2 4 2 12q2 2 3.5 4t1.5 7q1 5 -1.5 17.5t-12.5 53.5q-5 20 -11.5 49t-16.5 73.5t-23 108t-30 151.5q-13 -32 -25 -62t-23 -59q-33 -86 -57.5 -153t-39.5 -110
q-12 -33 -19.5 -52t-12 -28.5t-7 -12t-4.5 -3.5q-8 -2 -18 9q-1 1 -3.5 5t-7.5 17.5t-14.5 41t-26 77t-41 124.5t-59.5 184q-17 -100 -28.5 -169t-19 -115t-11 -72t-5 -39t-1.5 -17.5t1 -6.5q4 -6 9 -10.5t10 -7.5t8.5 -4.5t5.5 -3.5q7 -6 6 -10q0 -4 -11 -6q-5 0 -13 0.5
t-18 1.5q-9 2 -19.5 3t-23.5 0q-12 0 -25 -1.5t-22 -3.5q-9 -1 -13.5 -0.5t-9.5 1.5q-4 1 -7 4t4 12q25 12 39 22t22 23.5t12.5 32t9.5 47.5t12 67.5t14.5 79.5l15 82t13.5 74q13 66 19.5 100t11.5 48q5 16 10.5 18t11.5 -2q2 -1 5 -4.5t9.5 -18t18 -44t30 -83t46 -135
t66.5 -198.5q29 78 52 138.5t42 108.5q33 85 51.5 132t29 69.5t14.5 27.5t7 7q7 4 13 3.5t11 -10.5q3 -5 5.5 -13.5t6.5 -23t9 -37t12 -55.5t15.5 -75.5t17 -86.5t16.5 -86t13 -74t8.5 -53t10.5 -35.5t19.5 -24t35.5 -18.5z" />
    <glyph glyph-name="n" unicode="n" horiz-adv-x="504" 
d="M53 523q-1 35 -0.5 53.5t2.5 27t5 9.5t7 1q2 0 6.5 -2t16 -13.5t33.5 -37.5t60 -73.5t95 -120.5t138 -180v370v2q-2 17 -9 24t-15 11t-13 6t-7 4q-5 4 6 8q2 1 7.5 1.5t18.5 0.5h1q23 0 31.5 -1t11.5 -1q3 -1 6 0.5t18 2.5q15 -1 19 -4q3 -3 2.5 -7t-5.5 -7t-13.5 -8
t-13.5 -23v-479q0 -28 0.5 -46t-0.5 -27q-2 -9 -4.5 -10.5t-6.5 -1.5q-2 0 -3.5 1t-5.5 5t-10.5 12t-16.5 23l-316 435v-416q1 -14 2 -18.5t3 -6.5q6 -7 13.5 -9t12.5 -5q12 -6 10 -14q-2 -3 -9 -4.5t-26 -2.5h-1q-13 1 -17.5 1.5t-9.5 1.5q-4 0 -11 -0.5t-29 -2.5
q-17 0 -21.5 3.5t1.5 8.5q3 3 9 6t12 8t11 13t5 20v462z" />
    <glyph glyph-name="o" unicode="o" horiz-adv-x="485" 
d="M458 306q2 -38 -3 -78t-19 -80q-11 -35 -21 -53t-21 -32q-42 -48 -96 -61q-26 -6 -54 -6q-48 -1 -84 14.5t-67 50.5q-11 13 -21.5 30.5t-22.5 52.5q-14 41 -19 80.5t-5 77.5t5.5 77.5t19.5 80.5q11 35 22 52.5t22 30.5q28 32 60.5 47.5t74.5 17.5h10q46 1 81.5 -14
t65.5 -48q11 -13 22 -30.5t23 -52.5q14 -40 20.5 -79.5t6.5 -77.5zM393 222q1 16 1 26.5v21.5q-1 23 -4.5 54.5t-12.5 63.5q-8 32 -21.5 61.5t-27.5 53.5q-15 24 -33 42q-20 21 -45 27q-5 1 -9.5 1.5t-9.5 0.5q-21 0 -40 -8q-13 -6 -22.5 -15.5t-17.5 -22.5t-15 -28t-12 -32
q-10 -31 -15 -64q-5 -31 -4 -58.5t3 -54.5q3 -26 7.5 -53t12.5 -57q4 -15 9 -30t14 -31q9 -17 21 -32.5t23 -26.5q23 -22 50 -26q20 -3 45 2q5 1 8.5 2t7.5 3q14 5 24 13t20 21q9 13 17.5 30.5t14.5 37.5q5 20 7.5 41t3.5 37z" />
    <glyph glyph-name="p" unicode="p" horiz-adv-x="417" 
d="M396 445q2 -35 -6.5 -64t-28.5 -49q-25 -23 -51.5 -35t-60.5 -17q-48 -4 -64.5 -3t-21.5 4q-5 2 -6.5 4t-1.5 4v3q2 6 10 7q6 2 14.5 2t18.5 1q10 2 20 3.5t21 5.5t25 10.5t32 23.5l2 2q14 15 24 36.5t12 46.5q1 24 -7 48.5t-21 44.5q-12 20 -29.5 33t-43.5 21
q-12 3 -26 5t-27 2q-14 0 -25.5 -3t-14.5 -9v-512q0 -20 8 -30t28 -13q6 0 9 -3.5t1.5 -7t-9.5 -6t-26 -1.5h-105q-22 0 -23 9.5t13 9.5q28 10 29 43v494q0 24 -25 30q-14 6 -15 12t7 10q4 2 10.5 3t22.5 1.5t43 0.5h72h36q49 0 83 -15.5t55 -39.5t30.5 -53.5t11.5 -58.5z
" />
    <glyph glyph-name="q" unicode="q" horiz-adv-x="473" 
d="M857 -69q11 0 13 -4t-9 -12t-34.5 -17t-49.5 -14t-53.5 -3.5t-58.5 5.5q-14 2 -37.5 7.5t-50.5 13t-54.5 16.5t-48.5 17l-153 78q-26 -11 -52 -15q-8 -2 -16.5 -2h-17.5q-48 0 -83.5 15t-65.5 50q-11 13 -21.5 30.5t-22.5 52.5q-14 41 -19.5 80.5t-4.5 77.5
q-1 38 4.5 77.5t19.5 80.5q12 35 22.5 53t21.5 30q26 30 55.5 45.5t67.5 18.5q5 1 10.5 1.5t11.5 0.5q45 0 80.5 -14.5t64.5 -48.5q11 -13 22 -30.5t23 -52.5q14 -40 20.5 -79.5t6.5 -77.5q2 -38 -3 -77.5t-18 -80.5q-11 -35 -21.5 -53t-21.5 -31q-6 -8 -9 -11l153 -77
l24 -9t34 -12.5t33.5 -12t22.5 -7.5q45 -14 80.5 -17t62 -1.5t44 5.5t28.5 4zM341 81q9 13 17.5 30.5t13.5 37.5q6 20 8 41.5t4 38.5q1 33 0 54q-1 11 -1.5 21.5t-2.5 21.5t-3 21.5t-3 21.5q-3 20 -13 51q-6 17 -14.5 36t-18.5 36t-19.5 31t-20.5 25q-22 23 -47 29
q-15 3 -29 2t-29 -8q-24 -11 -40 -38q-16 -24 -28 -63q-6 -19 -10.5 -39.5t-6.5 -37.5q-4 -33 -3 -53q0 -11 1 -21.5t2 -21.5q2 -11 2.5 -22t2.5 -22t4.5 -23t7.5 -28t11 -35.5t16 -38.5t22 -35t23 -27q24 -22 50 -25q11 -3 27 -1q9 1 17.5 2.5t16.5 4.5q14 5 23.5 13
t19.5 21z" />
    <glyph glyph-name="r" unicode="r" horiz-adv-x="522" 
d="M505 15q7 -3 3.5 -5.5t-13.5 -4.5t-23.5 -3t-26.5 -2q-14 -1 -28.5 2t-39.5 25q-11 9 -26 24.5t-39 43.5t-59.5 71.5t-87.5 109.5h-19v-215q0 -20 7 -31t29 -13q6 -1 9 -4t1.5 -6.5t-9.5 -6t-26 -1.5h-105q-14 0 -21.5 3t-9.5 6.5t1.5 6.5t10.5 3q37 8 37 44v494
q1 24 -37 30q-14 6 -15 12t10 10q5 1 13.5 2t25.5 2t45.5 1h73.5h36q49 0 83 -15t55 -39t30.5 -53t11.5 -58q2 -35 -6.5 -65.5t-28.5 -48.5q-25 -23 -51.5 -35.5t-60.5 -17.5q-3 0 -6 -0.5t-6 -0.5q36 -45 64.5 -79t50.5 -59.5t39.5 -43.5t31.5 -31q32 -30 50.5 -39
t25.5 -13zM156 304q38 0 81 8q5 1 10.5 2t10.5 3q12 5 23 12t21 17l2 2q14 15 24 36.5t12 46.5q1 25 -7 50t-21 45t-30 33t-43 21q-12 3 -26 5t-27 2q-14 0 -25.5 -3t-14.5 -9v-271h10z" />
    <glyph glyph-name="s" unicode="s" horiz-adv-x="404" 
d="M363 224q17 -33 16 -74.5t-32 -81.5q-15 -20 -39 -37t-58.5 -26t-80.5 -6t-105 23q-11 4 -15.5 0t-7.5 -5q-6 -1 -9 19q-2 10 -3.5 24.5t-2.5 39.5v26t2.5 22.5t7.5 9t15 -12.5q2 -7 4 -17.5t5 -21.5q8 -27 18.5 -40t29.5 -21t45 -12t55 1t55 20t39 38t8.5 50.5
t-25.5 52.5q-21 26 -55.5 46t-69.5 41t-64.5 45t-46.5 57q-17 34 -16 75.5t32 81.5q15 20 38.5 37t56 25t73 4.5t90.5 -24.5q11 -5 15.5 -0.5t7.5 5.5q4 1 9 -20q2 -9 3.5 -23t1.5 -34q0 -10 -1 -20.5t-4 -16.5t-9 -5t-16 15q-2 7 -3 14t-3 13q-6 18 -16 29.5t-26 19.5
q-15 9 -35.5 14t-46.5 0t-51.5 -19.5t-38.5 -37.5t-8.5 -51t25.5 -53t55.5 -45.5t69.5 -41.5q35 -20 64.5 -44t46.5 -58z" />
    <glyph glyph-name="t" unicode="t" horiz-adv-x="447" 
d="M427 599q1 -10 -1.5 -27t-5.5 -30t-6.5 -19.5t-6.5 -8.5q-6 -4 -9 5q-2 5 -2 12t-1 15t-3.5 15t-13 11.5t-31.5 6.5t-60 1q-25 -3 -25 -22v-8v-483q1 -24 3 -31t4 -9q5 -5 12 -7t12 -4q11 -5 9 -10q-2 -3 -9 -4.5t-26 -2.5h-1q-12 0 -23.5 1.5t-20.5 2.5q-9 0 -19 -2
t-31 0q-33 3 -23 10q4 3 16.5 9t20.5 26q1 2 2 7t1 10v487q0 12 -11 23q-8 3 -17 3h-17q-24 -1 -33 -1t-17 -2q-8 -1 -19 -4.5t-19 -11.5q-9 -8 -14 -19t-10 -17t-8.5 -6.5t-5.5 1.5t-1.5 6t2.5 15t4 28.5t6 28.5q3 11 8 14t15 4q14 -5 34.5 -3.5t49.5 1.5h168h83q3 1 8 1
q5 1 9.5 1t9.5 1q5 0 8.5 -2t4.5 -12z" />
    <glyph glyph-name="u" unicode="u" horiz-adv-x="538" 
d="M515 608q7 -2 7 -10q-1 -2 -3 -4.5t-8 -5.5t-14 -7.5t-12 -12.5q-3 -5 -3.5 -12.5t-1.5 -23.5v-274q0 -37 -3 -65q-8 -79 -36 -118.5t-69 -57.5q-38 -16 -88 -19h-6q-27 -2 -56 0.5t-58 13.5q-14 5 -28 13.5t-26 22t-22 33.5t-17 49q-5 26 -8 57.5t-5 69.5v287q-1 4 -1 7
t-1 6q-4 20 -11 26.5t-13 9.5t-9 4t-5 3q-5 5 4 8q5 2 32 2h58h28t21 -1q15 -3 15 -8q1 -2 -7 -10q-4 -2 -8 -5t-9 -9q-5 -4 -8.5 -11.5t-2.5 -26.5v-282q1 -66 5.5 -111t23.5 -71q19 -25 50 -34.5t62 -7.5q8 2 13 2q33 5 58.5 22.5t39.5 41.5t18.5 52.5t4.5 62.5q2 21 0 44
v280q-1 21 -2 26t-4 7q-3 3 -7.5 7t-9.5 6q-5 3 -10 4t-8 3q-7 5 -3 12q2 3 6.5 5t14.5 2q9 0 22.5 -1t26.5 -1q14 -1 25.5 0t20.5 2q18 1 27 -2z" />
    <glyph glyph-name="v" unicode="v" horiz-adv-x="508" 
d="M490 611q9 -1 7 -5.5t-6 -7.5q-8 -7 -14.5 -8.5t-12.5 -9.5l-190 -568q-11 -8 -17.5 -9t-11.5 1q-3 1 -5.5 4.5t-6.5 14t-11 30.5t-19 54t-27.5 82.5t-32 100t-32 100t-26.5 84.5q-12 35 -19 56t-11.5 32t-7 15.5t-5.5 6.5q-5 5 -11 7.5t-11 5.5q-8 6 -5 11q1 2 5 2t21 1
q17 0 42.5 0.5t42.5 0.5t23 -1t8 -3q3 -5 -5 -11q-4 -2 -9 -5t-10 -12q-2 -4 -2.5 -11t4 -25.5t16 -53.5t33.5 -95l80 -266q23 60 43 120t37 122l10 36q16 54 25.5 85t14 48t6 23.5t1.5 9.5q0 9 -4.5 11.5t-9.5 4.5q-11 3 -16 11q-2 4 0.5 7.5t15.5 3.5h1h102z" />
    <glyph glyph-name="w" unicode="w" horiz-adv-x="798" 
d="M777 610q5 -2 7.5 -5t-4.5 -12q-24 -9 -37 -18t-20.5 -22t-12 -31.5t-9.5 -47.5t-12 -67.5t-14.5 -79.5l-15 -82t-13.5 -74q-13 -67 -19.5 -101t-11.5 -49q-5 -16 -10.5 -18t-11.5 2q-2 1 -5 4.5t-9.5 18t-18 44.5t-30 83.5t-46 135t-66.5 199.5q-23 -61 -41.5 -111.5
t-35.5 -92.5q-38 -101 -60 -157t-33.5 -83t-16 -33.5t-7.5 -7.5q-7 -4 -13 -3.5t-12 11.5q-3 5 -6 13.5t-6.5 23t-8.5 37t-12 54.5q-7 33 -15.5 74.5t-16.5 84t-15.5 83.5t-12.5 72t-8.5 52t-10.5 35.5t-19 25t-35 21.5q-18 8 -18.5 12.5t6.5 6.5t18.5 1t22.5 -2q23 -2 44 0
q11 1 20.5 2.5t16.5 2.5q12 0 16 -6q2 -3 -2 -13q-5 -8 -6 -18q0 -6 2 -18.5t11 -51.5q4 -18 10.5 -45.5t16 -70.5t22.5 -105.5t30 -150.5q18 45 34.5 86.5t30.5 79.5q26 71 46 126t34 93q12 33 19.5 51.5t12 28t7 12.5t4.5 3q7 1 17 -9q1 -1 3.5 -5t7.5 -17.5t14.5 -41
t26 -77t41 -124.5t59.5 -184q17 100 29 169t19.5 115t11 72t5 39t1 17t-1.5 6q-3 5 -8 8t-9 5t-6.5 3t-4.5 3q-6 6 -6 12q0 5 10 8q5 1 12 1.5t16 -0.5q9 0 19.5 -1t22.5 -1q12 -1 24.5 -0.5t20.5 1.5q17 0 22 -2z" />
    <glyph glyph-name="x" unicode="x" horiz-adv-x="482" 
d="M462 9q0 -2 -4.5 -4.5t-20.5 -3.5q-16 -2 -40.5 -1.5t-44.5 0.5h-31.5t-17.5 1q-9 3 -5 8q3 3 8 6.5t10 7.5t8.5 9t1.5 21q-26 53 -53.5 105t-54.5 104q-26 -52 -52.5 -103t-52.5 -103q-8 -15 -3.5 -22.5t11.5 -12.5t12 -8.5t8 -6.5q2 -2 1 -4t-11 -3t-26 -0.5t-30 1.5
q-14 0 -23.5 0.5t-14.5 1.5q-8 1 -8.5 3t3 5t9.5 6t10 6q4 2 9 9q1 1 2.5 4t6.5 12.5t15.5 28t28.5 51.5q17 32 40.5 75.5t46.5 90.5q-128 266 -146 286q-5 6 -14 10t-16 7.5t-10 7t3 8.5h79h44.5t20.5 -0.5t7 -1.5q8 -3 0 -11q-5 -4 -11.5 -8.5t-8.5 -10.5q-1 -3 -0.5 -7.5
t5.5 -16t15 -32t27 -55.5q11 -23 24 -50.5t27 -59.5q18 32 33 59.5t27 50.5q19 35 30 55.5t16 32t5.5 16t-0.5 7.5q-3 6 -10 10.5t-12 8.5q-9 8 -1 11q2 1 6.5 1.5t15 0.5h30h52.5q3 -7 1 -9t-7 -4t-11 -5t-15 -15q-6 -8 -40.5 -70t-99.5 -179q12 -28 26 -56l27.5 -55
t26.5 -51t24 -43q18 -33 28 -51l15 -27t6 -11.5t2 -3.5q2 -2 5 -3.5l7 -3.5q8 -4 18 -7.5t11 -8.5z" />
    <glyph glyph-name="y" unicode="y" horiz-adv-x="496" 
d="M466 607q4 -1 6.5 -4t-3.5 -13q-25 -13 -40 -24t-26 -25.5t-22.5 -34t-29.5 -50.5q-12 -20 -28 -46t-38 -62v-289q2 -14 3 -18.5t3 -6.5q5 -7 13 -9t13 -5q12 -7 9 -14q-2 -3 -8.5 -4.5t-25.5 -2.5h-1q-13 0 -24 1.5t-20 2.5q-10 0 -19.5 -1t-31.5 -3q-17 0 -21.5 4
t1.5 8q4 3 10 6t12 8t10.5 13t4.5 20v273q-17 30 -29 51.5t-20.5 36.5t-14.5 25t-11 18q-16 28 -24.5 48t-17.5 34.5t-21.5 25.5t-35.5 22q-17 8 -18 12.5t6 6.5q8 2 19 1t22 -3q12 -2 23 -2.5t22 0.5t20 2.5t17 2.5q13 0 15 -6q2 -3 -2 -13q-2 -4 -3.5 -8t-1.5 -9
q0 -3 0.5 -7t4 -12t10.5 -22t19 -36q11 -21 28 -50.5t42 -71.5q39 68 60.5 106t31.5 57t12 23.5t2 6.5q-1 11 -7.5 16t-12.5 7q-4 2 -6.5 3t-4.5 4q-2 2 -2 5.5t4 5.5q4 1 11.5 0t15.5 -2q15 -1 35 0h43h12.5t9.5 -2z" />
    <glyph glyph-name="z" unicode="z" horiz-adv-x="451" 
d="M425 126q2 -5 0.5 -12t-6.5 -22q-5 -14 -11 -33.5t-10 -33.5q-3 -9 -7 -14t-18 -9q-118 -2 -184.5 -2.5t-99.5 -0.5h-42t-13 1q-8 2 -11 7.5t0 23.5l300 544l-178 -2q-26 -2 -37.5 -5.5t-19.5 -11.5t-13.5 -20.5t-10.5 -20.5t-8.5 -9.5t-9.5 -1.5q-3 0 -6 1.5t-3 10
t5 26.5t18 51q8 12 15.5 15t14.5 3q7 -1 13.5 -3t17.5 -2l255 2q53 0 41 -31l-297 -544q58 1 96 2t61 3t36 5t22 7q20 9 30.5 22.5t18.5 25.5t14.5 20.5t11.5 11.5q5 4 9 2t6 -6z" />
    <glyph glyph-name="agrave" unicode="&#xe0;" horiz-adv-x="833" 
 />
    <glyph glyph-name="quotesinglbase" unicode="&#x201a;" horiz-adv-x="833" 
 />
    <glyph glyph-name="_0157" horiz-adv-x="0" 
 />
  </font>
</defs>
</svg>
